<svg width="25" height="12" viewBox="0 0 25 12" fill="none" xmlns="http://www.w3.org/2000/svg">
<g id="Battery">
<path id="Union" opacity="0.4" fill-rule="evenodd" clip-rule="evenodd" d="M3.33863 1.33334H20.0053C20.9258 1.33334 21.672 2.07953 21.672 3.00001V9.00001C21.672 9.92049 20.9258 10.6667 20.0053 10.6667H3.33863C2.41816 10.6667 1.67197 9.92049 1.67197 9.00001V3.00001C1.67197 2.07953 2.41816 1.33334 3.33863 1.33334ZM0.671967 3.00001C0.671967 1.52725 1.86587 0.333344 3.33863 0.333344H20.0053C21.4781 0.333344 22.672 1.52725 22.672 3.00001V9.00001C22.672 10.4728 21.4781 11.6667 20.0053 11.6667H3.33863C1.86587 11.6667 0.671967 10.4728 0.671967 9.00001V3.00001ZM24.9999 6.00006C24.9999 6.87319 24.4766 7.66128 23.6719 8.00006V4.00006C24.4766 4.33884 24.9999 5.12693 24.9999 6.00006Z" fill="white"/>
<rect id="Capacity" x="2.67186" y="2.33334" width="18" height="7.33333" rx="1.33333" fill="white"/>
</g>
</svg>
