<svg width="18" height="12" viewBox="0 0 18 12" fill="none" xmlns="http://www.w3.org/2000/svg">
<path id="Cellular" fill-rule="evenodd" clip-rule="evenodd" d="M16.3995 0.666626H15.3995C14.8473 0.666626 14.3995 1.11434 14.3995 1.66663V10.3333C14.3995 10.8856 14.8473 11.3333 15.3995 11.3333H16.3995C16.9518 11.3333 17.3995 10.8856 17.3995 10.3333V1.66663C17.3995 1.11434 16.9518 0.666626 16.3995 0.666626ZM10.7328 2.99993H11.7328C12.2851 2.99993 12.7328 3.44764 12.7328 3.99993V10.3333C12.7328 10.8855 12.2851 11.3333 11.7328 11.3333H10.7328C10.1805 11.3333 9.73281 10.8855 9.73281 10.3333V3.99993C9.73281 3.44764 10.1805 2.99993 10.7328 2.99993ZM7.06633 5.33342H6.06633C5.51404 5.33342 5.06633 5.78113 5.06633 6.33342V10.3334C5.06633 10.8857 5.51404 11.3334 6.06633 11.3334H7.06633C7.61861 11.3334 8.06633 10.8857 8.06633 10.3334V6.33342C8.06633 5.78113 7.61861 5.33342 7.06633 5.33342ZM2.3996 7.33343H1.3996C0.847312 7.33343 0.399597 7.78114 0.399597 8.33343V10.3334C0.399597 10.8857 0.847312 11.3334 1.3996 11.3334H2.3996C2.95188 11.3334 3.3996 10.8857 3.3996 10.3334V8.33343C3.3996 7.78114 2.95188 7.33343 2.3996 7.33343Z" fill="white"/>
</svg>
