<svg width="60" height="40" viewBox="0 0 60 40" fill="none" xmlns="http://www.w3.org/2000/svg">
<g id="Frame 6">
<path id="Symbol" d="M18.3579 27.4102C18.3579 28.251 18.9116 28.5791 19.5166 28.5791C19.8652 28.5791 20.1626 28.374 20.5522 28.1382C21.6802 27.3691 23.0747 26.8975 24.5 26.9077C25.9766 26.918 27.4429 27.4614 28.5913 28.5688C29.0425 28.979 29.3706 29.1123 29.75 29.1123C30.1191 29.1123 30.4575 28.979 30.8984 28.5688C32.0469 27.4717 33.5132 26.918 35 26.9077C36.4253 26.8975 37.8096 27.3691 38.9375 28.1382C39.3271 28.374 39.6245 28.5791 39.9834 28.5791C40.5781 28.5791 41.1318 28.251 41.1318 27.4102V13.4956C41.1318 13.3213 41.1216 13.1777 41.0088 13.0034C40.0962 11.4141 37.7788 10.0708 34.959 10.0708C32.7236 10.0708 30.7856 10.9629 29.75 12.2241C28.7144 10.9629 26.7661 10.0708 24.541 10.0708C21.7109 10.0708 19.3936 11.4141 18.481 13.0034C18.3784 13.1777 18.3579 13.3213 18.3579 13.4956V27.4102ZM20.0088 26.5386V13.7314C20.8394 12.5317 22.644 11.7217 24.541 11.7217C26.4893 11.7217 28.1914 12.542 28.9194 13.793V26.7129C27.8735 25.8823 26.2432 25.2568 24.541 25.2568C22.7568 25.2568 21.0957 25.7593 20.0088 26.5386ZM30.5703 26.7129V13.793C31.2983 12.542 33.0107 11.7217 34.959 11.7217C36.8457 11.7217 38.6504 12.5317 39.481 13.7314V26.5386C38.394 25.7593 36.7329 25.2568 34.959 25.2568C33.2466 25.2568 31.6162 25.8823 30.5703 26.7129Z" fill="#0A84FF"/>
</g>
</svg>
