<svg width="59" height="40" viewBox="0 0 59 40" fill="none" xmlns="http://www.w3.org/2000/svg">
<g id="Frame 3">
<path id="Symbol" d="M23.1836 19.5967C23.1836 19.853 23.2759 20.0786 23.4707 20.2734L31.6021 28.2202C31.7764 28.4048 32.002 28.4971 32.2686 28.4971C32.8018 28.4971 33.2119 28.0972 33.2119 27.564C33.2119 27.2974 33.0991 27.0718 32.9351 26.8975L25.4702 19.5967L32.9351 12.2959C33.0991 12.1216 33.2119 11.8857 33.2119 11.6294C33.2119 11.0962 32.8018 10.6963 32.2686 10.6963C32.002 10.6963 31.7764 10.7886 31.6021 10.9629L23.4707 18.9199C23.2759 19.1045 23.1836 19.3403 23.1836 19.5967Z" fill="#0A84FF"/>
</g>
</svg>
