<svg width="60" height="40" viewBox="0 0 60 40" fill="none" xmlns="http://www.w3.org/2000/svg">
<g id="Frame 5">
<path id="Symbol" d="M29.9897 22.3857C30.4307 22.3857 30.8101 22.0166 30.8101 21.5859V11.0552L30.7485 9.51709L31.4355 10.2451L32.9941 11.9062C33.1377 12.0703 33.3428 12.1523 33.5479 12.1523C33.9683 12.1523 34.2964 11.8447 34.2964 11.4243C34.2964 11.209 34.2041 11.0449 34.0503 10.8911L30.5845 7.54834C30.3794 7.34326 30.2051 7.27148 29.9897 7.27148C29.7847 7.27148 29.6104 7.34326 29.395 7.54834L25.9292 10.8911C25.7754 11.0449 25.6934 11.209 25.6934 11.4243C25.6934 11.8447 26.001 12.1523 26.4316 12.1523C26.6265 12.1523 26.8521 12.0703 26.9956 11.9062L28.5439 10.2451L29.2412 9.51709L29.1797 11.0552V21.5859C29.1797 22.0166 29.5488 22.3857 29.9897 22.3857ZM24.1143 30.4146H35.8755C38.0186 30.4146 39.0952 29.3481 39.0952 27.2358V17.0024C39.0952 14.8901 38.0186 13.8237 35.8755 13.8237H33.0146V15.4746H35.8447C36.8599 15.4746 37.4443 16.0283 37.4443 17.0947V27.1436C37.4443 28.21 36.8599 28.7637 35.8447 28.7637H24.1348C23.1094 28.7637 22.5454 28.21 22.5454 27.1436V17.0947C22.5454 16.0283 23.1094 15.4746 24.1348 15.4746H26.9751V13.8237H24.1143C21.9712 13.8237 20.8945 14.8901 20.8945 17.0024V27.2358C20.8945 29.3481 21.9712 30.4146 24.1143 30.4146Z" fill="#0A84FF"/>
</g>
</svg>
