<svg width="60" height="40" viewBox="0 0 60 40" fill="none" xmlns="http://www.w3.org/2000/svg">
<g id="Frame 4">
<path id="Symbol" d="M36.5767 19.5967C36.5767 19.3403 36.4741 19.1045 36.2793 18.9199L28.1582 10.9629C27.9736 10.7886 27.748 10.6963 27.4814 10.6963C26.9585 10.6963 26.5483 11.0962 26.5483 11.6294C26.5483 11.8857 26.6509 12.1216 26.8149 12.2959L34.2798 19.5967L26.8149 26.8975C26.6509 27.0718 26.5483 27.2974 26.5483 27.564C26.5483 28.0972 26.9585 28.4971 27.4814 28.4971C27.748 28.4971 27.9736 28.4048 28.1582 28.2202L36.2793 20.2734C36.4741 20.0786 36.5767 19.853 36.5767 19.5967Z" fill="#0A84FF"/>
</g>
</svg>
