<svg width="59" height="40" viewBox="0 0 59 40" fill="none" xmlns="http://www.w3.org/2000/svg">
<g id="Frame 7">
<path id="Symbol" d="M21.8711 25.6055H23.6245V27.1743C23.6245 29.2866 24.6909 30.353 26.8442 30.353H37.1392C39.272 30.353 40.3486 29.2866 40.3486 27.1743V16.7974C40.3486 14.6851 39.272 13.6187 37.1392 13.6187H35.3755V12.0498C35.3755 9.9375 34.2988 8.87109 32.166 8.87109H21.8711C19.7178 8.87109 18.6514 9.9375 18.6514 12.0498V22.4268C18.6514 24.5391 19.7178 25.6055 21.8711 25.6055ZM21.8916 23.9546C20.8662 23.9546 20.3022 23.4009 20.3022 22.3345V12.1421C20.3022 11.0757 20.8662 10.522 21.8916 10.522H32.1353C33.1504 10.522 33.7246 11.0757 33.7246 12.1421V13.6187H26.8442C24.6909 13.6187 23.6245 14.6748 23.6245 16.7974V23.9546H21.8916ZM26.8647 28.7021C25.8496 28.7021 25.2754 28.1484 25.2754 27.082V16.8896C25.2754 15.8232 25.8496 15.2695 26.8647 15.2695H37.1084C38.1235 15.2695 38.6978 15.8232 38.6978 16.8896V27.082C38.6978 28.1484 38.1235 28.7021 37.1084 28.7021H26.8647Z" fill="#0A84FF"/>
</g>
</svg>
