<svg width="16" height="12" viewBox="0 0 16 12" fill="none" xmlns="http://www.w3.org/2000/svg">
<path id="Wifi" fill-rule="evenodd" clip-rule="evenodd" d="M8.0362 2.7946C10.2521 2.7947 12.3833 3.64613 13.9892 5.17293C14.1101 5.29081 14.3034 5.28932 14.4225 5.1696L15.5785 4.00293C15.6388 3.94221 15.6725 3.85996 15.672 3.77438C15.6715 3.6888 15.6369 3.60695 15.5759 3.54693C11.3608 -0.492614 4.71097 -0.492614 0.49587 3.54693C0.434811 3.6069 0.400167 3.68873 0.399604 3.77431C0.399041 3.85989 0.432605 3.94217 0.49287 4.00293L1.6492 5.1696C1.76823 5.2895 1.96168 5.29099 2.08254 5.17293C3.68869 3.64603 5.82009 2.79459 8.0362 2.7946ZM8.03623 6.59016C9.25372 6.59009 10.4278 7.04262 11.3302 7.85983C11.4523 7.97581 11.6446 7.97329 11.7636 7.85416L12.9182 6.68749C12.979 6.6263 13.0128 6.54328 13.0119 6.45702C13.011 6.37075 12.9756 6.28844 12.9136 6.22849C10.1654 3.67211 5.90943 3.67211 3.16123 6.22849C3.09916 6.28844 3.06374 6.37079 3.06292 6.45709C3.06211 6.54338 3.09597 6.62639 3.1569 6.68749L4.31123 7.85416C4.43022 7.97329 4.6225 7.97581 4.74457 7.85983C5.64644 7.04316 6.81955 6.59067 8.03623 6.59016ZM10.3493 9.14396C10.3511 9.23046 10.3171 9.31386 10.2553 9.37447L8.25801 11.3901C8.19946 11.4494 8.11963 11.4827 8.03634 11.4827C7.95305 11.4827 7.87322 11.4494 7.81467 11.3901L5.81701 9.37447C5.7553 9.31382 5.72135 9.23039 5.72318 9.14388C5.72501 9.05738 5.76245 8.97546 5.82667 8.91747C7.10225 7.83859 8.97044 7.83859 10.246 8.91747C10.3102 8.97551 10.3476 9.05745 10.3493 9.14396Z" fill="white"/>
</svg>
